Coordinates
version=1
nRows=7
nColumns=42
inDegrees=yes

Units are S.I. units (second, meters, Newtons, ...)
If the header above contains a line with 'inDegrees', this indicates whether rotational values are in degrees (yes) or radians (no).

endheader
time	pelvis_tilt	pelvis_list	pelvis_rotation	pelvis_tx	pelvis_ty	pelvis_tz	hip_flexion_r	hip_adduction_r	hip_rotation_r	knee_angle_r	knee_adduction_r	knee_angle_r_beta	ankle_angle_r	subtalar_angle_r	mtp_angle_r	hip_flexion_l	hip_adduction_l	hip_rotation_l	knee_angle_l	knee_adduction_l	knee_angle_l_beta	ankle_angle_l	subtalar_angle_l	mtp_angle_l	lumbar_extension	lumbar_bending	lumbar_rotation	arm_flex_r	arm_add_r	arm_rot_r	elbow_flex_r	pro_sup_r	wrist_flex_r	wrist_dev_r	arm_flex_l	arm_add_l	arm_rot_l	elbow_flex_l	pro_sup_l	wrist_flex_l	wrist_dev_l
      1.75000000	     10.28158648	      1.91517381	     -1.50079903	     -0.46292347	      0.90970392	      0.19803691	     19.25812727	     -3.49840008	     -1.34548532	     57.05221262	      1.48403644	      0.99574896	      7.08236095	     -6.93501819	     -7.56049045	     -5.51391954	      7.76996704	    -11.57420294	     21.12236302	     -2.49343619	      0.36865478	     21.86680933	     17.53257999	     -7.56049045	    -20.97957922	      0.30149445	     -5.74481428	      0.08028311	     -9.98350327	    -17.50013489	     30.07333725	     90.00000001	      0.00000000	      0.00000000	     -4.68826244	     -9.04825203	    -21.43807879	     39.98192651	     90.00000001	      0.00000000	      0.00000000
      1.76000000	     10.17616311	      1.81084150	     -1.19882779	     -0.45558120	      0.90940348	      0.19777313	     19.78351392	     -3.43671851	     -1.72693511	     54.13508128	      1.47575522	      0.94483541	      7.90249699	     -4.77283298	     -7.55682086	     -6.04878773	      7.70212405	    -11.39913289	     20.90716505	     -2.63669047	      0.36489887	     22.24404967	     17.86284138	     -7.55682086	    -20.98781651	      0.54796537	     -6.07889493	     -0.38511703	     -9.97962247	    -17.70624525	     30.41000255	     90.00000001	      0.00000000	      0.00000000	     -4.45973475	     -9.19883019	    -21.04127882	     40.01623611	     90.00000001	      0.00000000	      0.00000000
      1.77000000	      9.82215055	      1.80339739	     -0.96543859	     -0.44848130	      0.90846047	      0.19758881	     20.65497802	     -3.45493845	     -1.46052030	     51.32119376	      1.91204442	      0.89572381	      8.20248020	     -3.88049148	     -7.55572851	     -6.20857194	      7.81316892	    -11.22886233	     20.80931589	     -2.92200814	      0.36319108	     22.55459888	     17.87388177	     -7.55572851	    -20.73061212	      0.67553449	     -6.38427657	     -0.82729880	     -9.98608170	    -17.78670491	     30.68267626	     90.00000001	      0.00000000	      0.00000000	     -4.25196623	     -9.32012752	    -20.83880910	     40.09305129	     90.00000001	      0.00000000	      0.00000000
      1.78000000	      9.75684891	      1.70410606	     -0.72470940	     -0.44098375	      0.90799471	      0.19765472	     20.90023231	     -3.40373450	     -1.37229031	     48.10194261	      2.34794096	      0.83953728	      8.82006407	     -2.37940064	     -7.55442107	     -6.84079095	      7.65655810	    -11.13505629	     20.56518093	     -2.92505080	      0.35893012	     23.01387108	     18.15256366	     -7.55442107	    -20.76550420	      0.86575939	     -6.58682475	     -1.32148190	     -9.97150269	    -17.97079853	     30.98406293	     90.00000001	      0.00000000	      0.00000000	     -3.97668584	     -9.44152621	    -20.51304015	     40.02285942	     90.00000001	      0.00000000	      0.00000000
      1.79000000	      9.87840590	      1.61106809	     -0.44415630	     -0.43301930	      0.90771002	      0.19775995	     20.88203629	     -3.30016741	     -2.60674605	     44.89188898	      1.69668667	      0.78351127	      9.89080824	      1.07646484	     -7.55099526	     -7.78506985	      7.43955880	    -11.29087719	     20.15701671	     -2.92336401	      0.35180631	     23.38391097	     19.36350192	     -7.55099526	    -20.94692324	      1.05323390	     -6.79823151	     -1.81629293	     -9.86476425	    -18.45335419	     31.23493600	     90.00000001	      0.00000000	      0.00000000	     -3.77534201	     -9.59855648	    -20.09391017	     40.05007618	     90.00000001	      0.00000000	      0.00000000
      1.80000000	      9.62544527	      1.62996893	     -0.25565728	     -0.42557786	      0.90659378	      0.19789849	     21.36303136	     -3.44262605	     -2.34445035	     41.93050955	      2.34485662	      0.73182545	     10.30721570	      2.12509394	     -7.54981412	     -8.12134630	      7.41575092	    -11.21405836	     20.05364910	     -2.96134526	      0.35000220	     23.82656152	     19.46466043	     -7.54981412	    -20.76925826	      1.10185431	     -6.94826542	     -2.27630067	     -9.82523068	    -18.58538803	     31.39257218	     90.00000001	      0.00000000	      0.00000000	     -3.51584930	     -9.67072516	    -19.95740202	     39.99940519	     90.00000001	      0.00000000	      0.00000000
      1.81000000	      9.63230440	      1.55079387	     -0.05404793	     -0.41779241	      0.90590077	      0.19829095	     21.37616283	     -3.38322953	     -2.75565167	     38.86045744	      2.43817492	      0.67824293	     10.80666818	      3.78787111	     -7.54817829	     -8.87935305	      7.14839573	    -11.21946654	     19.77792192	     -2.79386812	      0.34518986	     24.22044052	     20.02025838	     -7.54817829	    -20.84981704	      1.23098469	     -7.04782179	     -2.71165382	     -9.73199284	    -18.92388612	     31.52605806	     90.00000001	      0.00000000	      0.00000000	     -3.22176264	     -9.75093195	    -19.81955435	     39.90195396	     90.00000001	      0.00000000	      0.00000000
